G04 (created by PCBNEW (2013-07-07 BZR 4022)-stable) date 1/10/2014 3:41:53 PM*
%MOIN*%
G04 Gerber Fmt 3.4, Leading zero omitted, Abs format*
%FSLAX34Y34*%
G01*
G70*
G90*
G04 APERTURE LIST*
%ADD10C,0.00590551*%
%ADD11R,0.059X0.011*%
%ADD12R,0.011X0.059*%
%ADD13R,0.059X0.0512*%
%ADD14R,0.0512X0.059*%
%ADD15R,0.063X0.071*%
%ADD16R,0.0472X0.0472*%
%ADD17R,0.02X0.03*%
%ADD18R,0.035X0.055*%
%ADD19R,0.055X0.035*%
%ADD20C,0.074*%
%ADD21R,0.012X0.039*%
%ADD22R,0.0472X0.0216*%
%ADD23C,0.06*%
%ADD24R,0.06X0.06*%
%ADD25C,0.169291*%
%ADD26R,0.023622X0.0629921*%
%ADD27R,0.0256055X0.0374055*%
%ADD28C,0.048189*%
%ADD29R,0.0314X0.0314*%
%ADD30R,0.0551181X0.0551181*%
%ADD31C,0.0551181*%
%ADD32C,0.0511811*%
%ADD33R,0.045X0.09*%
%ADD34R,0.4252X0.3937*%
G04 APERTURE END LIST*
G54D10*
G36*
X72350Y-42391D02*
X72350Y-43375D01*
X71760Y-43375D01*
X71760Y-42391D01*
X72350Y-42391D01*
X72350Y-42391D01*
G37*
G36*
X70539Y-42391D02*
X70539Y-43375D01*
X69949Y-43375D01*
X69949Y-42391D01*
X70539Y-42391D01*
X70539Y-42391D01*
G37*
G36*
X72527Y-44222D02*
X72527Y-46977D01*
X69772Y-46977D01*
X69772Y-44222D01*
X72527Y-44222D01*
X72527Y-44222D01*
G37*
G54D11*
X63683Y-40576D03*
X63683Y-40379D03*
X63683Y-40182D03*
X63683Y-39985D03*
X63683Y-39788D03*
X63683Y-39592D03*
X63683Y-39395D03*
X63683Y-39198D03*
X63683Y-39002D03*
X63683Y-38805D03*
X63683Y-38608D03*
X63683Y-38412D03*
X63683Y-38215D03*
X63683Y-38018D03*
X63683Y-37821D03*
X63683Y-37624D03*
G54D12*
X62876Y-36817D03*
X62679Y-36817D03*
X62482Y-36817D03*
X62285Y-36817D03*
X62088Y-36817D03*
X61892Y-36817D03*
X61695Y-36817D03*
X61498Y-36817D03*
X61302Y-36817D03*
X61105Y-36817D03*
X60908Y-36817D03*
X60712Y-36817D03*
X60515Y-36817D03*
X60318Y-36817D03*
X60121Y-36817D03*
X59924Y-36817D03*
G54D11*
X59117Y-37624D03*
X59117Y-37821D03*
X59117Y-38018D03*
X59117Y-38215D03*
X59117Y-38412D03*
X59117Y-38608D03*
X59117Y-38805D03*
X59117Y-39002D03*
X59117Y-39198D03*
X59117Y-39395D03*
X59117Y-39592D03*
X59117Y-39788D03*
X59117Y-39985D03*
X59117Y-40182D03*
X59117Y-40379D03*
X59117Y-40576D03*
G54D12*
X59924Y-41383D03*
X60121Y-41383D03*
X60318Y-41383D03*
X60515Y-41383D03*
X60712Y-41383D03*
X60908Y-41383D03*
X61105Y-41383D03*
X61302Y-41383D03*
X61498Y-41383D03*
X61695Y-41383D03*
X61892Y-41383D03*
X62088Y-41383D03*
X62285Y-41383D03*
X62482Y-41383D03*
X62679Y-41383D03*
X62876Y-41383D03*
G54D13*
X72060Y-40985D03*
X72060Y-41735D03*
X57350Y-45925D03*
X57350Y-45175D03*
G54D14*
X66375Y-39500D03*
X65625Y-39500D03*
G54D13*
X56400Y-36425D03*
X56400Y-35675D03*
G54D14*
X63325Y-35700D03*
X64075Y-35700D03*
X65625Y-40300D03*
X66375Y-40300D03*
X68625Y-42900D03*
X69375Y-42900D03*
G54D15*
X65450Y-41180D03*
X66550Y-41180D03*
G54D14*
X61925Y-35700D03*
X62675Y-35700D03*
X61275Y-35700D03*
X60525Y-35700D03*
X59875Y-35700D03*
X59125Y-35700D03*
G54D13*
X57400Y-35675D03*
X57400Y-36425D03*
X69300Y-34225D03*
X69300Y-34975D03*
G54D14*
X71175Y-36950D03*
X70425Y-36950D03*
X69775Y-36950D03*
X69025Y-36950D03*
G54D13*
X70150Y-38500D03*
X70150Y-37750D03*
X55400Y-35675D03*
X55400Y-36425D03*
G54D14*
X50075Y-43350D03*
X50825Y-43350D03*
G54D13*
X69350Y-38500D03*
X69350Y-37750D03*
G54D14*
X67875Y-36200D03*
X67125Y-36200D03*
G54D13*
X70100Y-36275D03*
X70100Y-35525D03*
G54D14*
X67875Y-35400D03*
X67125Y-35400D03*
X69375Y-42000D03*
X68625Y-42000D03*
X52175Y-43350D03*
X52925Y-43350D03*
X48675Y-42650D03*
X49425Y-42650D03*
X50825Y-42650D03*
X50075Y-42650D03*
X51475Y-42650D03*
X52225Y-42650D03*
X52875Y-42650D03*
X53625Y-42650D03*
X55895Y-42590D03*
X56645Y-42590D03*
X57000Y-41075D03*
X57750Y-41075D03*
X57750Y-41750D03*
X57000Y-41750D03*
X52875Y-37250D03*
X53625Y-37250D03*
X51475Y-37250D03*
X52225Y-37250D03*
X50825Y-37250D03*
X50075Y-37250D03*
X48675Y-37250D03*
X49425Y-37250D03*
X49375Y-36550D03*
X50125Y-36550D03*
X51475Y-36550D03*
X52225Y-36550D03*
G54D16*
X67137Y-46450D03*
X67963Y-46450D03*
X67137Y-45550D03*
X67963Y-45550D03*
X67137Y-44650D03*
X67963Y-44650D03*
X67137Y-43750D03*
X67963Y-43750D03*
X70900Y-36313D03*
X70900Y-35487D03*
G54D17*
X64240Y-42780D03*
X64520Y-42780D03*
G54D18*
X58625Y-46550D03*
X59375Y-46550D03*
X54575Y-42600D03*
X55325Y-42600D03*
X54525Y-44550D03*
X53775Y-44550D03*
X57225Y-46550D03*
X57975Y-46550D03*
X55829Y-44548D03*
X55079Y-44548D03*
G54D19*
X71600Y-35575D03*
X71600Y-36325D03*
G54D18*
X68475Y-41000D03*
X67725Y-41000D03*
X68475Y-40250D03*
X67725Y-40250D03*
X68475Y-39500D03*
X67725Y-39500D03*
X68625Y-43750D03*
X69375Y-43750D03*
X68625Y-46450D03*
X69375Y-46450D03*
X68625Y-45550D03*
X69375Y-45550D03*
X65225Y-42780D03*
X65975Y-42780D03*
G54D19*
X58400Y-35675D03*
X58400Y-36425D03*
G54D18*
X66375Y-37900D03*
X65625Y-37900D03*
X68625Y-44650D03*
X69375Y-44650D03*
X50825Y-41850D03*
X50075Y-41850D03*
X66375Y-38700D03*
X65625Y-38700D03*
X66375Y-36300D03*
X65625Y-36300D03*
X51325Y-41850D03*
X52075Y-41850D03*
X76555Y-32790D03*
X75805Y-32790D03*
X61156Y-31290D03*
X60406Y-31290D03*
X66375Y-37100D03*
X65625Y-37100D03*
X48825Y-41700D03*
X49575Y-41700D03*
X53325Y-41800D03*
X52575Y-41800D03*
X49575Y-38050D03*
X48825Y-38050D03*
X50075Y-38050D03*
X50825Y-38050D03*
X52075Y-38050D03*
X51325Y-38050D03*
X52575Y-38050D03*
X53325Y-38050D03*
G54D20*
X53821Y-45410D03*
X56379Y-45415D03*
X53821Y-47190D03*
X56379Y-47185D03*
G54D21*
X48837Y-41098D03*
X49093Y-41098D03*
X49349Y-41098D03*
X49605Y-41098D03*
X49861Y-41098D03*
X50117Y-41098D03*
X50373Y-41098D03*
X50627Y-41098D03*
X50883Y-41098D03*
X51139Y-41098D03*
X51395Y-41098D03*
X51651Y-41098D03*
X51907Y-41098D03*
X52163Y-41098D03*
X52163Y-38802D03*
X51907Y-38802D03*
X51651Y-38802D03*
X51395Y-38802D03*
X51139Y-38802D03*
X50883Y-38802D03*
X50627Y-38802D03*
X50373Y-38802D03*
X50117Y-38802D03*
X49861Y-38802D03*
X49605Y-38802D03*
X49349Y-38802D03*
X49093Y-38802D03*
X48837Y-38802D03*
G54D22*
X57986Y-40499D03*
X57986Y-40125D03*
X57986Y-39751D03*
X56964Y-39751D03*
X56964Y-40499D03*
G54D10*
G36*
X65577Y-35064D02*
X65832Y-35064D01*
X65832Y-35224D01*
X65577Y-35224D01*
X65577Y-35064D01*
X65577Y-35064D01*
G37*
G36*
X65577Y-35320D02*
X65832Y-35320D01*
X65832Y-35479D01*
X65577Y-35479D01*
X65577Y-35320D01*
X65577Y-35320D01*
G37*
G36*
X65577Y-35575D02*
X65832Y-35575D01*
X65832Y-35735D01*
X65577Y-35735D01*
X65577Y-35575D01*
X65577Y-35575D01*
G37*
G36*
X66267Y-35575D02*
X66522Y-35575D01*
X66522Y-35735D01*
X66267Y-35735D01*
X66267Y-35575D01*
X66267Y-35575D01*
G37*
G36*
X66267Y-35320D02*
X66522Y-35320D01*
X66522Y-35479D01*
X66267Y-35479D01*
X66267Y-35320D01*
X66267Y-35320D01*
G37*
G36*
X66267Y-35064D02*
X66522Y-35064D01*
X66522Y-35224D01*
X66267Y-35224D01*
X66267Y-35064D01*
X66267Y-35064D01*
G37*
G36*
X63700Y-31900D02*
X63700Y-32500D01*
X63100Y-32500D01*
X63100Y-31900D01*
X63700Y-31900D01*
X63700Y-31900D01*
G37*
G54D23*
X63400Y-33200D03*
X62400Y-32200D03*
X62400Y-33200D03*
X61400Y-32200D03*
X61400Y-33200D03*
X60400Y-32200D03*
X60400Y-33200D03*
X59400Y-32200D03*
X59400Y-33200D03*
X58400Y-32200D03*
X58400Y-33200D03*
X57400Y-32200D03*
X57400Y-33200D03*
X56400Y-32200D03*
X56400Y-33200D03*
X55400Y-32200D03*
X55400Y-33200D03*
G54D10*
G36*
X74550Y-31900D02*
X74550Y-32500D01*
X73950Y-32500D01*
X73950Y-31900D01*
X74550Y-31900D01*
X74550Y-31900D01*
G37*
G54D23*
X74250Y-33200D03*
X73250Y-32200D03*
X73250Y-33200D03*
X72250Y-32200D03*
X72250Y-33200D03*
X71250Y-32200D03*
X71250Y-33200D03*
X70250Y-32200D03*
X70250Y-33200D03*
X69250Y-32200D03*
X69250Y-33200D03*
X68250Y-32200D03*
X68250Y-33200D03*
X67250Y-32200D03*
X67250Y-33200D03*
X66250Y-32200D03*
X66250Y-33200D03*
G54D24*
X58400Y-45400D03*
G54D20*
X59400Y-45500D03*
X60400Y-45400D03*
X61400Y-45500D03*
X62400Y-45400D03*
X63400Y-45500D03*
G54D24*
X71300Y-34400D03*
G54D23*
X70300Y-34400D03*
G54D24*
X74300Y-34400D03*
G54D23*
X73300Y-34400D03*
G54D25*
X51023Y-48870D03*
X51023Y-29870D03*
G54D26*
X75441Y-34377D03*
X75441Y-36502D03*
X75933Y-34377D03*
X76426Y-34377D03*
X76918Y-34377D03*
X75933Y-36502D03*
X76426Y-36502D03*
X76918Y-36502D03*
G54D10*
G36*
X71304Y-37568D02*
X71451Y-37568D01*
X71451Y-37864D01*
X71304Y-37864D01*
X71304Y-37568D01*
X71304Y-37568D01*
G37*
G36*
X71146Y-37568D02*
X71294Y-37568D01*
X71294Y-37864D01*
X71146Y-37864D01*
X71146Y-37568D01*
X71146Y-37568D01*
G37*
G36*
X70989Y-37568D02*
X71136Y-37568D01*
X71136Y-37864D01*
X70989Y-37864D01*
X70989Y-37568D01*
X70989Y-37568D01*
G37*
G36*
X70831Y-37568D02*
X70979Y-37568D01*
X70979Y-37864D01*
X70831Y-37864D01*
X70831Y-37568D01*
X70831Y-37568D01*
G37*
G36*
X70674Y-37568D02*
X70821Y-37568D01*
X70821Y-37864D01*
X70674Y-37864D01*
X70674Y-37568D01*
X70674Y-37568D01*
G37*
G36*
X70674Y-38277D02*
X70821Y-38277D01*
X70821Y-38572D01*
X70674Y-38572D01*
X70674Y-38277D01*
X70674Y-38277D01*
G37*
G36*
X70831Y-38277D02*
X70979Y-38277D01*
X70979Y-38572D01*
X70831Y-38572D01*
X70831Y-38277D01*
X70831Y-38277D01*
G37*
G36*
X70989Y-38277D02*
X71136Y-38277D01*
X71136Y-38572D01*
X70989Y-38572D01*
X70989Y-38277D01*
X70989Y-38277D01*
G37*
G36*
X71146Y-38277D02*
X71294Y-38277D01*
X71294Y-38572D01*
X71146Y-38572D01*
X71146Y-38277D01*
X71146Y-38277D01*
G37*
G36*
X71304Y-38277D02*
X71451Y-38277D01*
X71451Y-38572D01*
X71304Y-38572D01*
X71304Y-38277D01*
X71304Y-38277D01*
G37*
G54D25*
X77041Y-47620D03*
X77041Y-31120D03*
G54D10*
G36*
X67342Y-39035D02*
X67145Y-39035D01*
X67145Y-38661D01*
X67342Y-38661D01*
X67342Y-39035D01*
X67342Y-39035D01*
G37*
G36*
X67539Y-39035D02*
X67342Y-39035D01*
X67342Y-38661D01*
X67539Y-38661D01*
X67539Y-39035D01*
X67539Y-39035D01*
G37*
G36*
X67736Y-39035D02*
X67539Y-39035D01*
X67539Y-38661D01*
X67736Y-38661D01*
X67736Y-39035D01*
X67736Y-39035D01*
G37*
G36*
X67933Y-39035D02*
X67736Y-39035D01*
X67736Y-38661D01*
X67933Y-38661D01*
X67933Y-39035D01*
X67933Y-39035D01*
G37*
G36*
X68129Y-39035D02*
X67933Y-39035D01*
X67933Y-38661D01*
X68129Y-38661D01*
X68129Y-39035D01*
X68129Y-39035D01*
G37*
G36*
X68326Y-39035D02*
X68129Y-39035D01*
X68129Y-38661D01*
X68326Y-38661D01*
X68326Y-39035D01*
X68326Y-39035D01*
G37*
G36*
X68326Y-37480D02*
X68129Y-37480D01*
X68129Y-37106D01*
X68326Y-37106D01*
X68326Y-37480D01*
X68326Y-37480D01*
G37*
G36*
X68129Y-37480D02*
X67933Y-37480D01*
X67933Y-37106D01*
X68129Y-37106D01*
X68129Y-37480D01*
X68129Y-37480D01*
G37*
G36*
X67933Y-37480D02*
X67736Y-37480D01*
X67736Y-37106D01*
X67933Y-37106D01*
X67933Y-37480D01*
X67933Y-37480D01*
G37*
G36*
X67736Y-37480D02*
X67539Y-37480D01*
X67539Y-37106D01*
X67736Y-37106D01*
X67736Y-37480D01*
X67736Y-37480D01*
G37*
G36*
X67539Y-37480D02*
X67342Y-37480D01*
X67342Y-37106D01*
X67539Y-37106D01*
X67539Y-37480D01*
X67539Y-37480D01*
G37*
G36*
X67342Y-37480D02*
X67145Y-37480D01*
X67145Y-37106D01*
X67342Y-37106D01*
X67342Y-37480D01*
X67342Y-37480D01*
G37*
G36*
X68710Y-38661D02*
X68316Y-38661D01*
X68316Y-38464D01*
X68710Y-38464D01*
X68710Y-38661D01*
X68710Y-38661D01*
G37*
G36*
X68710Y-38464D02*
X68316Y-38464D01*
X68316Y-38267D01*
X68710Y-38267D01*
X68710Y-38464D01*
X68710Y-38464D01*
G37*
G36*
X68710Y-38267D02*
X68316Y-38267D01*
X68316Y-38070D01*
X68710Y-38070D01*
X68710Y-38267D01*
X68710Y-38267D01*
G37*
G36*
X68710Y-38070D02*
X68316Y-38070D01*
X68316Y-37874D01*
X68710Y-37874D01*
X68710Y-38070D01*
X68710Y-38070D01*
G37*
G36*
X68710Y-37874D02*
X68316Y-37874D01*
X68316Y-37677D01*
X68710Y-37677D01*
X68710Y-37874D01*
X68710Y-37874D01*
G37*
G36*
X68710Y-37677D02*
X68316Y-37677D01*
X68316Y-37480D01*
X68710Y-37480D01*
X68710Y-37677D01*
X68710Y-37677D01*
G37*
G36*
X67155Y-37677D02*
X66761Y-37677D01*
X66761Y-37480D01*
X67155Y-37480D01*
X67155Y-37677D01*
X67155Y-37677D01*
G37*
G36*
X67155Y-37874D02*
X66761Y-37874D01*
X66761Y-37677D01*
X67155Y-37677D01*
X67155Y-37874D01*
X67155Y-37874D01*
G37*
G36*
X67155Y-38070D02*
X66761Y-38070D01*
X66761Y-37874D01*
X67155Y-37874D01*
X67155Y-38070D01*
X67155Y-38070D01*
G37*
G36*
X67155Y-38267D02*
X66761Y-38267D01*
X66761Y-38070D01*
X67155Y-38070D01*
X67155Y-38267D01*
X67155Y-38267D01*
G37*
G36*
X67155Y-38464D02*
X66761Y-38464D01*
X66761Y-38267D01*
X67155Y-38267D01*
X67155Y-38464D01*
X67155Y-38464D01*
G37*
G36*
X67155Y-38661D02*
X66761Y-38661D01*
X66761Y-38464D01*
X67155Y-38464D01*
X67155Y-38661D01*
X67155Y-38661D01*
G37*
G54D27*
X63214Y-43334D03*
X63470Y-42546D03*
X63726Y-43334D03*
X63470Y-43334D03*
X63726Y-42546D03*
X63214Y-42546D03*
G54D28*
X55358Y-34824D03*
X56145Y-34824D03*
X56932Y-34824D03*
X57720Y-34824D03*
X58507Y-34824D03*
X59295Y-34824D03*
X60082Y-34824D03*
X60869Y-34824D03*
X61657Y-34824D03*
X62444Y-34824D03*
X55358Y-43485D03*
X56145Y-43485D03*
X56932Y-43485D03*
X57720Y-43485D03*
X58507Y-43485D03*
X59295Y-43485D03*
X60082Y-43485D03*
X60869Y-43485D03*
X61657Y-43485D03*
X62444Y-43485D03*
G54D10*
G36*
X66333Y-42701D02*
X66333Y-42268D01*
X66885Y-42268D01*
X66885Y-42701D01*
X66333Y-42701D01*
X66333Y-42701D01*
G37*
G36*
X67514Y-42701D02*
X67514Y-42268D01*
X68066Y-42268D01*
X68066Y-42701D01*
X67514Y-42701D01*
X67514Y-42701D01*
G37*
G36*
X67514Y-43331D02*
X67514Y-42898D01*
X68066Y-42898D01*
X68066Y-43331D01*
X67514Y-43331D01*
X67514Y-43331D01*
G37*
G36*
X66333Y-43331D02*
X66333Y-42898D01*
X66885Y-42898D01*
X66885Y-43331D01*
X66333Y-43331D01*
X66333Y-43331D01*
G37*
G54D18*
X57125Y-44550D03*
X56375Y-44550D03*
X76725Y-37990D03*
X75975Y-37990D03*
X78065Y-41980D03*
X78815Y-41980D03*
G54D19*
X54450Y-41205D03*
X54450Y-40455D03*
G54D18*
X54050Y-35225D03*
X53300Y-35225D03*
G54D19*
X55940Y-41195D03*
X55940Y-40445D03*
X55200Y-41195D03*
X55200Y-40445D03*
G54D29*
X76730Y-39155D03*
X76730Y-38565D03*
G54D23*
X53975Y-38775D03*
X54975Y-38775D03*
X55975Y-38775D03*
G54D30*
X78488Y-35552D03*
G54D31*
X78488Y-34765D03*
X78488Y-33977D03*
G54D32*
X77740Y-33190D03*
G54D30*
X78468Y-39772D03*
G54D31*
X78468Y-38985D03*
X78468Y-38197D03*
G54D32*
X77720Y-37410D03*
G54D30*
X45951Y-40787D03*
G54D31*
X45951Y-41574D03*
X45951Y-42362D03*
G54D32*
X46700Y-43149D03*
G54D30*
X45951Y-44987D03*
G54D31*
X45951Y-45774D03*
X45951Y-46562D03*
G54D32*
X46700Y-47349D03*
G54D30*
X48448Y-46562D03*
G54D31*
X48448Y-45775D03*
X48448Y-44987D03*
G54D32*
X47700Y-44200D03*
G54D30*
X51548Y-46612D03*
G54D31*
X51548Y-45825D03*
X51548Y-45037D03*
G54D32*
X50800Y-44250D03*
G54D30*
X51548Y-33762D03*
G54D31*
X51548Y-32975D03*
X51548Y-32187D03*
G54D32*
X50800Y-31400D03*
G54D30*
X48448Y-33762D03*
G54D31*
X48448Y-32975D03*
X48448Y-32187D03*
G54D32*
X47700Y-31400D03*
G54D30*
X45951Y-32187D03*
G54D31*
X45951Y-32974D03*
X45951Y-33762D03*
G54D32*
X46700Y-34549D03*
G54D30*
X45951Y-36487D03*
G54D31*
X45951Y-37274D03*
X45951Y-38062D03*
G54D32*
X46700Y-38849D03*
G54D16*
X52917Y-40450D03*
X53743Y-40450D03*
G54D26*
X64461Y-43597D03*
X64461Y-45722D03*
X64953Y-43597D03*
X65446Y-43597D03*
X65938Y-43597D03*
X64953Y-45722D03*
X65446Y-45722D03*
X65938Y-45722D03*
G54D33*
X75489Y-40360D03*
G54D34*
X74820Y-44610D03*
G54D33*
X74151Y-40360D03*
X74820Y-40360D03*
X76159Y-40360D03*
X73481Y-40360D03*
G54D30*
X78528Y-44492D03*
G54D31*
X78528Y-43705D03*
G54D32*
X77780Y-42917D03*
G54D18*
X74175Y-39240D03*
X73425Y-39240D03*
G54D14*
X75575Y-39220D03*
X74825Y-39220D03*
X74075Y-38500D03*
X74825Y-38500D03*
G54D23*
X48475Y-36025D03*
X53027Y-49372D03*
X53027Y-48372D03*
X54027Y-49372D03*
X54027Y-48372D03*
X55027Y-49372D03*
X55027Y-48372D03*
X56027Y-49372D03*
X56027Y-48372D03*
X57027Y-49372D03*
X57027Y-48372D03*
X58027Y-49372D03*
X58027Y-48372D03*
X59027Y-49372D03*
X59027Y-48372D03*
X60027Y-49372D03*
X60027Y-48372D03*
X61027Y-49372D03*
X61027Y-48372D03*
X62027Y-49372D03*
X62027Y-48372D03*
X63027Y-49372D03*
X63027Y-48372D03*
X64027Y-49372D03*
X64027Y-48372D03*
X65027Y-49372D03*
X65027Y-48372D03*
X66027Y-49372D03*
X66027Y-48372D03*
X67027Y-49372D03*
X67027Y-48372D03*
X68027Y-49372D03*
X68027Y-48372D03*
X69027Y-49372D03*
X69027Y-48372D03*
X70027Y-49372D03*
X70027Y-48372D03*
X71027Y-49372D03*
X71027Y-48372D03*
X72027Y-49372D03*
X72027Y-48372D03*
X73027Y-49372D03*
X73027Y-48372D03*
X74027Y-49372D03*
X74027Y-48372D03*
X75027Y-49372D03*
X75027Y-48372D03*
X53027Y-30368D03*
X53027Y-29368D03*
X54027Y-30368D03*
X54027Y-29368D03*
X55027Y-30368D03*
X55027Y-29368D03*
X56027Y-30368D03*
X56027Y-29368D03*
X57027Y-30368D03*
X57027Y-29368D03*
X58027Y-30368D03*
X58027Y-29368D03*
X59027Y-30368D03*
X59027Y-29368D03*
X60027Y-30368D03*
X60027Y-29368D03*
X61027Y-30368D03*
X61027Y-29368D03*
X62027Y-30368D03*
X62027Y-29368D03*
X63027Y-30368D03*
X63027Y-29368D03*
X64027Y-30368D03*
X64027Y-29368D03*
X65027Y-30368D03*
X65027Y-29368D03*
X66027Y-30368D03*
X66027Y-29368D03*
X67027Y-30368D03*
X67027Y-29368D03*
X68027Y-30368D03*
X68027Y-29368D03*
X69027Y-30368D03*
X69027Y-29368D03*
X70027Y-30368D03*
X70027Y-29368D03*
X71027Y-30368D03*
X71027Y-29368D03*
X72027Y-30368D03*
X72027Y-29368D03*
X73027Y-30368D03*
X73027Y-29368D03*
X74027Y-30368D03*
X74027Y-29368D03*
X75027Y-30368D03*
X75027Y-29368D03*
M02*
