M48
INCH,TZ
T1C0.020
T2C0.025
T3C0.039
T4C0.040
T5C0.091
%
G90
G05
T1
X46900Y-42620
X47600Y-40430
X47860Y-41200
X48810Y-39560
X49080Y-39330
X49175Y-42125
X49350Y-40660
X49500Y-43350
X49700Y-40660
X50075Y-37250
X50230Y-39310
X50400Y-38050
X50400Y-41850
X50600Y-36540
X50625Y-39575
X50900Y-40525
X51350Y-43375
X51700Y-38400
X51700Y-41500
X52225Y-37250
X52500Y-38740
X52700Y-36550
X52960Y-42140
X53220Y-38520
X53350Y-40330
X53425Y-35800
X53490Y-43250
X53660Y-40590
X54285Y-37325
X54300Y-32100
X54400Y-36000
X55550Y-40770
X55900Y-36050
X56300Y-44450
X56400Y-33975
X56820Y-43080
X56920Y-43680
X57400Y-39460
X57525Y-33950
X57650Y-36900
X57800Y-37600
X57800Y-37950
X57800Y-38300
X57980Y-37010
X57990Y-44665
X58415Y-40285
X59000Y-33975
X59286Y-37022
X59330Y-36460
X59350Y-41925
X59400Y-44650
X59600Y-33975
X59640Y-44380
X59650Y-36670
X59830Y-37320
X59950Y-38000
X59950Y-38400
X59960Y-33960
X60030Y-39490
X60060Y-46440
X60320Y-37420
X60350Y-39325
X60570Y-37750
X60645Y-34135
X60720Y-39340
X60800Y-42675
X60920Y-45120
X61020Y-37460
X61050Y-40150
X61100Y-39340
X61150Y-32690
X61175Y-42675
X61180Y-42280
X61220Y-34330
X61325Y-39925
X61475Y-39350
X61480Y-42020
X61600Y-39675
X61620Y-42720
X62075Y-37500
X62140Y-39400
X62175Y-37850
X62450Y-36025
X62680Y-39300
X62750Y-38570
X62810Y-37580
X62960Y-39500
X63075Y-39175
X63110Y-36360
X63175Y-42000
X63175Y-42375
X63220Y-36990
X63560Y-36790
X63600Y-37330
X63725Y-41525
X63840Y-37010
X63840Y-46000
X64100Y-41525
X64160Y-34770
X64170Y-35150
X64270Y-44390
X64400Y-36220
X64475Y-41525
X64530Y-40175
X64560Y-36540
X64720Y-36850
X64800Y-32250
X64825Y-41500
X64975Y-40700
X64975Y-41175
X65040Y-31980
X65120Y-34100
X65140Y-38580
X65170Y-36160
X65200Y-37625
X65200Y-38175
X65300Y-32250
X65320Y-31725
X65320Y-35275
X65350Y-33650
X65540Y-34820
X65770Y-33040
X65800Y-34575
X65805Y-31730
X65950Y-46500
X66050Y-37900
X66050Y-38700
X66815Y-37060
X66840Y-36720
X66920Y-38840
X66950Y-39190
X67100Y-41025
X67110Y-39500
X67150Y-39970
X67150Y-43750
X67150Y-46450
X67175Y-44625
X67645Y-35900
X68565Y-36860
X68580Y-36520
X68655Y-33525
X68870Y-38850
X68890Y-38120
X68910Y-39190
X69025Y-36950
X69350Y-37750
X69840Y-33520
X70100Y-36270
X70345Y-37595
X70425Y-36950
X70820Y-38760
X70900Y-41000
X71700Y-36300
X71700Y-38800
X71750Y-39325
X71850Y-34200
X71850Y-35650
X72325Y-37975
X72475Y-37650
X73200Y-35770
X73200Y-36900
X73400Y-39300
X73650Y-36725
T2
X48225Y-39925
X49605Y-39325
X52100Y-39950
X52525Y-40325
X53180Y-41220
X55500Y-39900
X61700Y-37610
X61700Y-38320
X64400Y-38800
X65200Y-42875
X65660Y-38260
X68800Y-42600
X71700Y-42500
X71825Y-33725
X74400Y-38840
X74825Y-36300
T3
X53246Y-44785
X53246Y-46565
X55804Y-44790
X55804Y-46560
T4
X46400Y-34200
X46400Y-35200
X46400Y-36933
X46400Y-37933
X46400Y-38933
X46400Y-39933
X46400Y-40933
X46400Y-41933
X46400Y-42933
X47400Y-34200
X47400Y-35200
X47400Y-36933
X47400Y-37933
X47400Y-38933
X47400Y-39933
X47400Y-40933
X47400Y-41933
X47400Y-42933
X48400Y-34200
X48400Y-35200
X49400Y-34200
X49400Y-35200
X54401Y-34824
X54401Y-43486
X55400Y-32200
X55400Y-33200
X55401Y-34824
X55401Y-43486
X56400Y-32200
X56400Y-33200
X56401Y-34824
X56401Y-43486
X57400Y-32200
X57400Y-33200
X57401Y-34824
X57401Y-43486
X58400Y-32200
X58400Y-33200
X58400Y-45400
X58401Y-34824
X58401Y-43486
X59400Y-32200
X59400Y-33200
X59400Y-45500
X59401Y-34824
X59401Y-43486
X60400Y-32200
X60400Y-33200
X60400Y-45400
X60401Y-34824
X60401Y-43486
X61350Y-46600
X61400Y-32200
X61400Y-33200
X61400Y-45500
X61401Y-34824
X61401Y-43486
X62350Y-46600
X62400Y-32200
X62400Y-33200
X62400Y-45400
X62401Y-34824
X62401Y-43486
X63350Y-46600
X63400Y-32200
X63400Y-33200
X63400Y-45500
X63401Y-34824
X63401Y-43486
X66250Y-32200
X66250Y-33200
X66300Y-34400
X67250Y-32200
X67250Y-33200
X67300Y-34400
X68250Y-32200
X68250Y-33200
X68300Y-34400
X69250Y-32200
X69250Y-33200
X70250Y-32200
X70250Y-33200
X70300Y-34400
X71250Y-32200
X71250Y-33200
X71300Y-34400
X72250Y-32200
X72250Y-33200
X73250Y-32200
X73250Y-33200
X73300Y-34400
X74250Y-32200
X74250Y-33200
X74300Y-34400
X74400Y-41500
X74400Y-42500
X74400Y-43800
X74400Y-44800
X74400Y-46500
T5
X46457Y-32283
X46457Y-46457
X76181Y-32283
X76181Y-46457
T0
M30
