G04 (created by PCBNEW (2013-07-07 BZR 4022)-stable) date 1/10/2014 3:41:53 PM*
%MOIN*%
G04 Gerber Fmt 3.4, Leading zero omitted, Abs format*
%FSLAX34Y34*%
G01*
G70*
G90*
G04 APERTURE LIST*
%ADD10C,0.00590551*%
%ADD11C,0.074*%
%ADD12C,0.06*%
%ADD13R,0.06X0.06*%
%ADD14C,0.169291*%
%ADD15C,0.048189*%
%ADD16R,0.0551181X0.0551181*%
%ADD17C,0.0551181*%
%ADD18C,0.0511811*%
G04 APERTURE END LIST*
G54D10*
G54D11*
X53821Y-45410D03*
X56379Y-45415D03*
X53821Y-47190D03*
X56379Y-47185D03*
G54D10*
G36*
X63700Y-31900D02*
X63700Y-32500D01*
X63100Y-32500D01*
X63100Y-31900D01*
X63700Y-31900D01*
X63700Y-31900D01*
G37*
G54D12*
X63400Y-33200D03*
X62400Y-32200D03*
X62400Y-33200D03*
X61400Y-32200D03*
X61400Y-33200D03*
X60400Y-32200D03*
X60400Y-33200D03*
X59400Y-32200D03*
X59400Y-33200D03*
X58400Y-32200D03*
X58400Y-33200D03*
X57400Y-32200D03*
X57400Y-33200D03*
X56400Y-32200D03*
X56400Y-33200D03*
X55400Y-32200D03*
X55400Y-33200D03*
G54D10*
G36*
X74550Y-31900D02*
X74550Y-32500D01*
X73950Y-32500D01*
X73950Y-31900D01*
X74550Y-31900D01*
X74550Y-31900D01*
G37*
G54D12*
X74250Y-33200D03*
X73250Y-32200D03*
X73250Y-33200D03*
X72250Y-32200D03*
X72250Y-33200D03*
X71250Y-32200D03*
X71250Y-33200D03*
X70250Y-32200D03*
X70250Y-33200D03*
X69250Y-32200D03*
X69250Y-33200D03*
X68250Y-32200D03*
X68250Y-33200D03*
X67250Y-32200D03*
X67250Y-33200D03*
X66250Y-32200D03*
X66250Y-33200D03*
G54D13*
X58400Y-45400D03*
G54D11*
X59400Y-45500D03*
X60400Y-45400D03*
X61400Y-45500D03*
X62400Y-45400D03*
X63400Y-45500D03*
G54D13*
X71300Y-34400D03*
G54D12*
X70300Y-34400D03*
G54D13*
X74300Y-34400D03*
G54D12*
X73300Y-34400D03*
G54D14*
X51023Y-48870D03*
X51023Y-29870D03*
X77041Y-47620D03*
X77041Y-31120D03*
G54D15*
X55358Y-34824D03*
X56145Y-34824D03*
X56932Y-34824D03*
X57720Y-34824D03*
X58507Y-34824D03*
X59295Y-34824D03*
X60082Y-34824D03*
X60869Y-34824D03*
X61657Y-34824D03*
X62444Y-34824D03*
X55358Y-43485D03*
X56145Y-43485D03*
X56932Y-43485D03*
X57720Y-43485D03*
X58507Y-43485D03*
X59295Y-43485D03*
X60082Y-43485D03*
X60869Y-43485D03*
X61657Y-43485D03*
X62444Y-43485D03*
G54D12*
X53975Y-38775D03*
X54975Y-38775D03*
X55975Y-38775D03*
G54D16*
X78488Y-35552D03*
G54D17*
X78488Y-34765D03*
X78488Y-33977D03*
G54D18*
X77740Y-33190D03*
G54D16*
X78468Y-39772D03*
G54D17*
X78468Y-38985D03*
X78468Y-38197D03*
G54D18*
X77720Y-37410D03*
G54D16*
X45951Y-40787D03*
G54D17*
X45951Y-41574D03*
X45951Y-42362D03*
G54D18*
X46700Y-43149D03*
G54D16*
X45951Y-44987D03*
G54D17*
X45951Y-45774D03*
X45951Y-46562D03*
G54D18*
X46700Y-47349D03*
G54D16*
X48448Y-46562D03*
G54D17*
X48448Y-45775D03*
X48448Y-44987D03*
G54D18*
X47700Y-44200D03*
G54D16*
X51548Y-46612D03*
G54D17*
X51548Y-45825D03*
X51548Y-45037D03*
G54D18*
X50800Y-44250D03*
G54D16*
X51548Y-33762D03*
G54D17*
X51548Y-32975D03*
X51548Y-32187D03*
G54D18*
X50800Y-31400D03*
G54D16*
X48448Y-33762D03*
G54D17*
X48448Y-32975D03*
X48448Y-32187D03*
G54D18*
X47700Y-31400D03*
G54D16*
X45951Y-32187D03*
G54D17*
X45951Y-32974D03*
X45951Y-33762D03*
G54D18*
X46700Y-34549D03*
G54D16*
X45951Y-36487D03*
G54D17*
X45951Y-37274D03*
X45951Y-38062D03*
G54D18*
X46700Y-38849D03*
G54D16*
X78528Y-44492D03*
G54D17*
X78528Y-43705D03*
G54D18*
X77780Y-42917D03*
G54D12*
X48475Y-36025D03*
X53027Y-49372D03*
X53027Y-48372D03*
X54027Y-49372D03*
X54027Y-48372D03*
X55027Y-49372D03*
X55027Y-48372D03*
X56027Y-49372D03*
X56027Y-48372D03*
X57027Y-49372D03*
X57027Y-48372D03*
X58027Y-49372D03*
X58027Y-48372D03*
X59027Y-49372D03*
X59027Y-48372D03*
X60027Y-49372D03*
X60027Y-48372D03*
X61027Y-49372D03*
X61027Y-48372D03*
X62027Y-49372D03*
X62027Y-48372D03*
X63027Y-49372D03*
X63027Y-48372D03*
X64027Y-49372D03*
X64027Y-48372D03*
X65027Y-49372D03*
X65027Y-48372D03*
X66027Y-49372D03*
X66027Y-48372D03*
X67027Y-49372D03*
X67027Y-48372D03*
X68027Y-49372D03*
X68027Y-48372D03*
X69027Y-49372D03*
X69027Y-48372D03*
X70027Y-49372D03*
X70027Y-48372D03*
X71027Y-49372D03*
X71027Y-48372D03*
X72027Y-49372D03*
X72027Y-48372D03*
X73027Y-49372D03*
X73027Y-48372D03*
X74027Y-49372D03*
X74027Y-48372D03*
X75027Y-49372D03*
X75027Y-48372D03*
X53027Y-30368D03*
X53027Y-29368D03*
X54027Y-30368D03*
X54027Y-29368D03*
X55027Y-30368D03*
X55027Y-29368D03*
X56027Y-30368D03*
X56027Y-29368D03*
X57027Y-30368D03*
X57027Y-29368D03*
X58027Y-30368D03*
X58027Y-29368D03*
X59027Y-30368D03*
X59027Y-29368D03*
X60027Y-30368D03*
X60027Y-29368D03*
X61027Y-30368D03*
X61027Y-29368D03*
X62027Y-30368D03*
X62027Y-29368D03*
X63027Y-30368D03*
X63027Y-29368D03*
X64027Y-30368D03*
X64027Y-29368D03*
X65027Y-30368D03*
X65027Y-29368D03*
X66027Y-30368D03*
X66027Y-29368D03*
X67027Y-30368D03*
X67027Y-29368D03*
X68027Y-30368D03*
X68027Y-29368D03*
X69027Y-30368D03*
X69027Y-29368D03*
X70027Y-30368D03*
X70027Y-29368D03*
X71027Y-30368D03*
X71027Y-29368D03*
X72027Y-30368D03*
X72027Y-29368D03*
X73027Y-30368D03*
X73027Y-29368D03*
X74027Y-30368D03*
X74027Y-29368D03*
X75027Y-30368D03*
X75027Y-29368D03*
M02*
