G04 (created by PCBNEW (2013-mar-13)-testing) date Thu 03 Oct 2013 09:38:53 AM PDT*
%MOIN*%
G04 Gerber Fmt 3.4, Leading zero omitted, Abs format*
%FSLAX34Y34*%
G01*
G70*
G90*
G04 APERTURE LIST*
%ADD10C,0.005906*%
%ADD11R,0.060000X0.060000*%
%ADD12C,0.060000*%
%ADD13C,0.074000*%
%ADD14C,0.169291*%
%ADD15C,0.048189*%
G04 APERTURE END LIST*
G54D10*
G54D11*
X74400Y-42500D03*
G54D12*
X74400Y-41500D03*
G54D11*
X74400Y-44800D03*
G54D12*
X74400Y-43800D03*
G54D11*
X63350Y-46600D03*
G54D12*
X62350Y-46600D03*
X61350Y-46600D03*
G54D13*
X53246Y-44785D03*
X55804Y-44790D03*
X53246Y-46565D03*
X55804Y-46560D03*
G54D12*
X74400Y-46500D03*
G54D10*
G36*
X63700Y-31900D02*
X63700Y-32500D01*
X63100Y-32500D01*
X63100Y-31900D01*
X63700Y-31900D01*
X63700Y-31900D01*
G37*
G54D12*
X63400Y-33200D03*
X62400Y-32200D03*
X62400Y-33200D03*
X61400Y-32200D03*
X61400Y-33200D03*
X60400Y-32200D03*
X60400Y-33200D03*
X59400Y-32200D03*
X59400Y-33200D03*
X58400Y-32200D03*
X58400Y-33200D03*
X57400Y-32200D03*
X57400Y-33200D03*
X56400Y-32200D03*
X56400Y-33200D03*
X55400Y-32200D03*
X55400Y-33200D03*
G54D10*
G36*
X74550Y-31900D02*
X74550Y-32500D01*
X73950Y-32500D01*
X73950Y-31900D01*
X74550Y-31900D01*
X74550Y-31900D01*
G37*
G54D12*
X74250Y-33200D03*
X73250Y-32200D03*
X73250Y-33200D03*
X72250Y-32200D03*
X72250Y-33200D03*
X71250Y-32200D03*
X71250Y-33200D03*
X70250Y-32200D03*
X70250Y-33200D03*
X69250Y-32200D03*
X69250Y-33200D03*
X68250Y-32200D03*
X68250Y-33200D03*
X67250Y-32200D03*
X67250Y-33200D03*
X66250Y-32200D03*
X66250Y-33200D03*
G54D11*
X58400Y-45400D03*
G54D13*
X59400Y-45500D03*
X60400Y-45400D03*
X61400Y-45500D03*
X62400Y-45400D03*
X63400Y-45500D03*
G54D11*
X71300Y-34400D03*
G54D12*
X70300Y-34400D03*
G54D11*
X74300Y-34400D03*
G54D12*
X73300Y-34400D03*
G54D14*
X46456Y-46456D03*
X46456Y-32283D03*
G54D11*
X68300Y-34400D03*
G54D12*
X67300Y-34400D03*
X66300Y-34400D03*
G54D14*
X76181Y-46456D03*
X76181Y-32283D03*
G54D11*
X46400Y-35200D03*
G54D12*
X46400Y-34200D03*
X47400Y-35200D03*
X47400Y-34200D03*
X48400Y-35200D03*
X48400Y-34200D03*
X49400Y-35200D03*
X49400Y-34200D03*
G54D11*
X47400Y-42933D03*
G54D12*
X46400Y-42933D03*
X47400Y-41933D03*
X46400Y-41933D03*
X47400Y-40933D03*
X46400Y-40933D03*
X47400Y-39933D03*
X46400Y-39933D03*
X47400Y-38933D03*
X46400Y-38933D03*
X47400Y-37933D03*
X46400Y-37933D03*
X47400Y-36933D03*
X46400Y-36933D03*
G54D15*
X55358Y-34824D03*
X56145Y-34824D03*
X56932Y-34824D03*
X57720Y-34824D03*
X58507Y-34824D03*
X59295Y-34824D03*
X60082Y-34824D03*
X60869Y-34824D03*
X61657Y-34824D03*
X62444Y-34824D03*
X55358Y-43485D03*
X56145Y-43485D03*
X56932Y-43485D03*
X57720Y-43485D03*
X58507Y-43485D03*
X59295Y-43485D03*
X60082Y-43485D03*
X60869Y-43485D03*
X61657Y-43485D03*
X62444Y-43485D03*
M02*
