M48
INCH,TZ
T1C0.020
T2C0.025
T3C0.031
T4C0.035
T5C0.039
T6C0.040
T7C0.051
T8C0.138
%
G90
G05
T1
X4.881Y-3.956
X4.888Y-4.034
X4.908Y-3.933
X4.935Y-4.066
X5.0075Y-3.725
X5.023Y-3.931
X5.04Y-3.805
X5.04Y-4.185
X5.074Y-3.957
X5.087Y-4.071
X5.17Y-3.84
X5.17Y-4.15
X5.2225Y-3.725
X5.296Y-4.214
X5.349Y-4.325
X5.405Y-3.413
X5.406Y-3.227
X5.406Y-3.322
X5.4075Y-3.575
X5.418Y-4.361
X5.425Y-3.605
X5.45Y-4.395
X5.46Y-3.795
X5.47Y-4.515
X5.4825Y-3.76
X5.5075Y-4.5125
X5.539Y-3.567
X5.581Y-4.683
X5.5825Y-4.5125
X5.675Y-4.49
X5.678Y-4.586
X5.719Y-4.264
X5.7325Y-4.325
X5.74Y-3.946
X5.7575Y-4.455
X5.778Y-3.76
X5.778Y-3.795
X5.778Y-3.83
X5.803Y-3.678
X5.825Y-4.2375
X5.827Y-3.893
X5.8415Y-4.0285
X5.842Y-3.698
X5.892Y-4.092
X5.9286Y-3.7022
X5.933Y-3.646
X5.935Y-4.1925
X5.94Y-4.465
X5.952Y-3.424
X5.964Y-4.438
X5.965Y-3.667
X5.9825Y-4.28
X5.983Y-3.732
X5.99Y-3.207
X5.995Y-3.8
X5.995Y-3.84
X5.995Y-4.3925
X6.003Y-3.949
X6.03Y-4.3875
X6.032Y-3.742
X6.035Y-3.9325
X6.0525Y-3.57
X6.057Y-3.775
X6.06Y-4.4075
X6.072Y-3.934
X6.08Y-4.2675
X6.092Y-4.512
X6.102Y-3.746
X6.108Y-3.935
X6.1175Y-4.2675
X6.118Y-4.228
X6.143Y-4.301
X6.1431Y-3.9369
X6.148Y-4.202
X6.162Y-4.272
X6.169Y-4.03
X6.18Y-3.44
X6.19Y-3.194
X6.214Y-3.94
X6.2175Y-3.785
X6.245Y-3.6025
X6.254Y-4.218
X6.268Y-3.93
X6.273Y-4.286
X6.275Y-3.857
X6.281Y-3.758
X6.296Y-3.95
X6.311Y-3.636
X6.318Y-4.309
X6.322Y-3.699
X6.326Y-4.37
X6.346Y-4.174
X6.356Y-3.679
X6.36Y-3.733
X6.372Y-4.222
X6.3725Y-4.1525
X6.384Y-3.701
X6.3996Y-4.4388
X6.41Y-4.1525
X6.416Y-3.477
X6.417Y-3.515
X6.44Y-3.622
X6.4475Y-4.1525
X6.453Y-4.0175
X6.456Y-3.654
X6.459Y-3.275
X6.472Y-3.685
X6.48Y-3.225
X6.4825Y-4.15
X6.4975Y-4.07
X6.4975Y-4.1175
X6.504Y-3.198
X6.508Y-3.288
X6.514Y-3.858
X6.517Y-3.616
X6.52Y-3.7625
X6.52Y-3.8175
X6.524Y-3.42
X6.53Y-3.225
X6.532Y-3.1725
X6.532Y-3.5275
X6.535Y-3.365
X6.554Y-3.482
X6.5622Y-3.4166
X6.589Y-3.482
X6.605Y-3.79
X6.605Y-3.87
X6.6389Y-4.6463
X6.66Y-4.375
X6.66Y-4.465
X6.6735Y-4.6436
X6.6815Y-3.706
X6.684Y-3.672
X6.695Y-3.919
X6.71Y-4.1025
X6.711Y-3.95
X6.712Y-3.452
X6.715Y-3.997
X6.7645Y-3.59
X6.84Y-3.435
X6.8565Y-3.686
X6.858Y-3.652
X6.8625Y-4.2
X6.887Y-3.885
X6.889Y-3.812
X6.9025Y-3.695
X6.918Y-3.91
X6.935Y-3.775
X6.97Y-4.375
X7.001Y-4.445
X7.01Y-3.627
X7.0345Y-3.7595
X7.0425Y-3.695
X7.074Y-3.192
X7.082Y-3.876
X7.168Y-4.365
X7.206Y-4.391
X7.2325Y-3.7975
X7.2475Y-3.765
X7.268Y-3.627
X7.282Y-3.595
X7.314Y-4.741
X7.327Y-4.106
X7.401Y-4.745
X7.503Y-4.745
X7.544Y-3.569
X7.611Y-3.924
X7.692Y-3.596
X7.747Y-3.901
X7.823Y-4.565
T2
X4.961Y-3.933
X5.456Y-4.204
X6.17Y-3.761
X6.17Y-3.832
X6.408Y-4.361
X6.44Y-3.88
X6.566Y-3.826
X6.72Y-4.2875
X7.025Y-4.195
X7.03Y-3.376
X7.372Y-3.492
X7.415Y-4.12
X7.672Y-3.967
T3
X5.5358Y-3.4824
X5.5358Y-4.3486
X5.6145Y-3.4824
X5.6145Y-4.3486
X5.6933Y-3.4824
X5.6933Y-4.3486
X5.772Y-3.4824
X5.772Y-4.3486
X5.8508Y-3.4824
X5.8508Y-4.3486
X5.9295Y-3.4824
X5.9295Y-4.3486
X6.0082Y-3.4824
X6.0082Y-4.3486
X6.087Y-3.4824
X6.087Y-4.3486
X6.1657Y-3.4824
X6.1657Y-4.3486
X6.2445Y-3.4824
X6.2445Y-4.3486
T4
X4.5952Y-3.2187
X4.5952Y-3.2975
X4.5952Y-3.3762
X4.5952Y-3.6487
X4.5952Y-3.7275
X4.5952Y-3.8062
X4.5952Y-4.0787
X4.5952Y-4.1575
X4.5952Y-4.2362
X4.5952Y-4.4987
X4.5952Y-4.5775
X4.5952Y-4.6562
X4.8448Y-3.2188
X4.8448Y-3.2975
X4.8448Y-3.3763
X4.8448Y-4.4988
X4.8448Y-4.5775
X4.8448Y-4.6563
X5.1548Y-3.2188
X5.1548Y-3.2975
X5.1548Y-3.3763
X5.1548Y-4.5038
X5.1548Y-4.5825
X5.1548Y-4.6613
X7.8468Y-3.8198
X7.8468Y-3.8985
X7.8468Y-3.9773
X7.8488Y-3.3978
X7.8488Y-3.4765
X7.8488Y-3.5553
X7.8528Y-4.3705
X7.8528Y-4.4493
T5
X5.3821Y-4.541
X5.3821Y-4.719
X5.6379Y-4.5415
X5.6379Y-4.7185
T6
X4.8475Y-3.6025
X5.3028Y-2.9368
X5.3028Y-3.0368
X5.3028Y-4.8372
X5.3028Y-4.9372
X5.3975Y-3.8775
X5.4028Y-2.9368
X5.4028Y-3.0368
X5.4028Y-4.8372
X5.4028Y-4.9372
X5.4975Y-3.8775
X5.5028Y-2.9368
X5.5028Y-3.0368
X5.5028Y-4.8372
X5.5028Y-4.9372
X5.54Y-3.22
X5.54Y-3.32
X5.5975Y-3.8775
X5.6028Y-2.9368
X5.6028Y-3.0368
X5.6028Y-4.8372
X5.6028Y-4.9372
X5.64Y-3.22
X5.64Y-3.32
X5.7028Y-2.9368
X5.7028Y-3.0368
X5.7028Y-4.8372
X5.7028Y-4.9372
X5.74Y-3.22
X5.74Y-3.32
X5.8028Y-2.9368
X5.8028Y-3.0368
X5.8028Y-4.8372
X5.8028Y-4.9372
X5.84Y-3.22
X5.84Y-3.32
X5.84Y-4.54
X5.9028Y-2.9368
X5.9028Y-3.0368
X5.9028Y-4.8372
X5.9028Y-4.9372
X5.94Y-3.22
X5.94Y-3.32
X5.94Y-4.55
X6.0028Y-2.9368
X6.0028Y-3.0368
X6.0028Y-4.8372
X6.0028Y-4.9372
X6.04Y-3.22
X6.04Y-3.32
X6.04Y-4.54
X6.1028Y-2.9368
X6.1028Y-3.0368
X6.1028Y-4.8372
X6.1028Y-4.9372
X6.14Y-3.22
X6.14Y-3.32
X6.14Y-4.55
X6.2028Y-2.9368
X6.2028Y-3.0368
X6.2028Y-4.8372
X6.2028Y-4.9372
X6.24Y-3.22
X6.24Y-3.32
X6.24Y-4.54
X6.3028Y-2.9368
X6.3028Y-3.0368
X6.3028Y-4.8372
X6.3028Y-4.9372
X6.34Y-3.22
X6.34Y-3.32
X6.34Y-4.55
X6.4028Y-2.9368
X6.4028Y-3.0368
X6.4028Y-4.8372
X6.4028Y-4.9372
X6.5028Y-2.9368
X6.5028Y-3.0368
X6.5028Y-4.8372
X6.5028Y-4.9372
X6.6028Y-2.9368
X6.6028Y-3.0368
X6.6028Y-4.8372
X6.6028Y-4.9372
X6.625Y-3.22
X6.625Y-3.32
X6.7028Y-2.9368
X6.7028Y-3.0368
X6.7028Y-4.8372
X6.7028Y-4.9372
X6.725Y-3.22
X6.725Y-3.32
X6.8028Y-2.9368
X6.8028Y-3.0368
X6.8028Y-4.8372
X6.8028Y-4.9372
X6.825Y-3.22
X6.825Y-3.32
X6.9028Y-2.9368
X6.9028Y-3.0368
X6.9028Y-4.8372
X6.9028Y-4.9372
X6.925Y-3.22
X6.925Y-3.32
X7.0028Y-2.9368
X7.0028Y-3.0368
X7.0028Y-4.8372
X7.0028Y-4.9372
X7.025Y-3.22
X7.025Y-3.32
X7.03Y-3.44
X7.1028Y-2.9368
X7.1028Y-3.0368
X7.1028Y-4.8372
X7.1028Y-4.9372
X7.125Y-3.22
X7.125Y-3.32
X7.13Y-3.44
X7.2028Y-2.9368
X7.2028Y-3.0368
X7.2028Y-4.8372
X7.2028Y-4.9372
X7.225Y-3.22
X7.225Y-3.32
X7.3028Y-2.9368
X7.3028Y-3.0368
X7.3028Y-4.8372
X7.3028Y-4.9372
X7.325Y-3.22
X7.325Y-3.32
X7.33Y-3.44
X7.4028Y-2.9368
X7.4028Y-3.0368
X7.4028Y-4.8372
X7.4028Y-4.9372
X7.425Y-3.22
X7.425Y-3.32
X7.43Y-3.44
X7.5028Y-2.9368
X7.5028Y-3.0368
X7.5028Y-4.8372
X7.5028Y-4.9372
T7
X4.67Y-3.455
X4.67Y-3.885
X4.67Y-4.315
X4.67Y-4.735
X4.77Y-3.14
X4.77Y-4.42
X5.08Y-3.14
X5.08Y-4.425
X7.772Y-3.741
X7.774Y-3.319
X7.778Y-4.2918
T8
X5.1024Y-2.987
X5.1024Y-4.887
X7.7041Y-3.112
X7.7041Y-4.762
T0
M30
